<svg xmlns="http://www.w3.org/2000/svg" width="256" height="256" viewBox="0 0 100 100"><rect width="100" height="100" rx="50" fill="#cdebff"></rect><path d="M38.44 53.04L44.31 59.38L44.31 74.15L39.06 74.15L39.06 60.83L32.44 53.86L15.33 53.86L15.33 74.15L10.08 74.15L10.08 25.85L37.68 25.85L44.03 32.20L44.03 47.45L38.44 53.04ZM15.33 30.40L15.33 49.31L35.41 49.31L38.86 45.93L38.86 33.79L35.41 30.40L15.33 30.40ZM67.22 74.15L50.17 25.85L55.62 25.85L69.98 67.87L70.11 67.87L84.47 25.85L89.92 25.85L72.87 74.15L67.22 74.15Z" fill="#4b00e7"></path></svg>