<?xml version="1.0" encoding="UTF-8"?><svg id="navn" xmlns="http://www.w3.org/2000/svg" width="471" height="108" viewBox="0 0 471 108"><defs><style>.cls-1{fill:aqua;stroke:#fff;stroke-miterlimit:10;}</style></defs><path class="cls-1" d="M98.04,48.31l-2.89,2.47,2.09,2.85-1.56,8.82h-5.17l1.37-7.87-1.67-2.32h-8.44l-1.79,10.18h-5.17l4.67-26.6h16.34l3.61,4.41-1.41,8.06Zm-15.5-.3h9.12l1.56-1.33,.91-5.17-1.1-1.33h-9.12l-1.37,7.83Z"/><path class="cls-1" d="M100.62,58.19l1.94-11.02,4.26-3.65h10.83l3.5,4.26-1.94,11.1-4.14,3.57h-10.94l-3.5-4.26Zm12.35,.08l1.56-1.33,1.37-7.9-1.1-1.33h-5.97l-1.56,1.33-1.41,7.9,1.1,1.33h6Z"/><path class="cls-1" d="M122.51,58.41l.34-2.01h4.94l-.19,1.06,.68,.87h6.16l.99-.87,.27-1.63-.68-.91h-7.87l-3.23-3.91,.76-4.14,3.91-3.34h9.88l3.27,4.03-.38,2.01h-4.94l.19-1.06-.68-.87h-5.62l-.99,.87-.23,1.48,.68,.91h7.87l3.23,3.91-.76,4.29-3.91,3.34h-10.41l-3.27-4.03Z"/><path class="cls-1" d="M143.48,58.26l1.94-11.1,4.29-3.65h10.64l3.5,4.26-1.22,6.88h-13.49l-.42,2.43,.99,1.25h6.16l1.37-1.18,.15-.99h4.94l-.49,2.85-3.99,3.42h-10.94l-3.42-4.18Zm14.74-7.11l.42-2.2-1.06-1.33h-5.89l-1.52,1.33-.42,2.2h8.47Z"/><path class="cls-1" d="M178.4,35.84h5.09l3,20.44h.08l10.22-20.44h5.55l-14.14,26.6h-5.02l-4.79-26.6Z"/><path class="cls-1" d="M198.01,58.26l1.94-11.1,4.29-3.65h10.64l3.5,4.26-1.22,6.88h-13.49l-.42,2.43,.99,1.25h6.16l1.37-1.18,.15-.99h4.94l-.49,2.85-3.99,3.42h-10.94l-3.42-4.18Zm14.74-7.11l.42-2.2-1.06-1.33h-5.89l-1.52,1.33-.42,2.2h8.47Z"/><path class="cls-1" d="M223.13,43.52h4.63l-.57,3.15,3.61-3.15h5.4l-.76,4.26h-4.22l-4.56,3.95-1.86,10.72h-5.02l3.34-18.92Z"/><path class="cls-1" d="M238.67,43.52h4.64l-.57,3.12,3.65-3.12h4.63l2.13,2.62,3.04-2.62h6.42l3.61,4.41-2.58,14.52h-5.02l2.36-13.34-1.06-1.33h-3.15l-2.36,2.01-2.24,12.65h-4.86l2.36-13.41-.99-1.25h-2.13l-4.26,3.65-1.94,11.02h-5.02l3.34-18.92Z"/><path class="cls-1" d="M268.43,58.26l1.94-11.1,4.29-3.65h10.64l3.5,4.26-1.22,6.88h-13.49l-.42,2.43,.99,1.25h6.16l1.37-1.18,.15-.99h4.94l-.49,2.85-3.99,3.42h-10.94l-3.42-4.18Zm14.74-7.11l.42-2.2-1.06-1.33h-5.89l-1.52,1.33-.42,2.2h8.47Z"/><path class="cls-1" d="M294.99,35.31h5.02l-1.98,11.02,3.31-2.81h5.89l3.72,4.52-2.54,14.4h-5.02l2.36-13.34-1.06-1.33h-3.12l-4.45,3.8-1.9,10.87h-5.02l4.79-27.13Z"/><path class="cls-1" d="M316.12,43.52h4.64l-.57,3.15,3.61-3.15h5.4l-.76,4.26h-4.22l-4.56,3.95-1.86,10.72h-5.02l3.34-18.92Z"/><path class="cls-1" d="M327.74,58.26l1.94-11.1,4.29-3.65h10.64l3.5,4.26-1.21,6.88h-13.49l-.42,2.43,.99,1.25h6.16l1.37-1.18,.15-.99h4.94l-.49,2.85-3.99,3.42h-10.94l-3.42-4.18Zm14.74-7.11l.42-2.2-1.06-1.33h-5.89l-1.52,1.33-.42,2.2h8.47Z"/><path class="cls-1" d="M352.86,43.52h4.64l-.57,3.15,3.72-3.15h5.81l3.72,4.52-2.55,14.4h-5.02l2.36-13.34-1.06-1.33h-3.04l-4.45,3.8-1.9,10.87h-5.02l3.34-18.92Z"/></svg>