<?xml version="1.0" encoding="UTF-8"?><svg id="h1" xmlns="http://www.w3.org/2000/svg" width="776" height="185" viewBox="0 0 776 185"><defs><style>.cls-1{fill:aqua;stroke:#fff;stroke-miterlimit:10;stroke-width:2px;}</style></defs><path class="cls-1" d="M261.38,66.94h28.81l6.37,7.77-2.95,16.62-7.71,6.57h-20.84l-2.81,15.95h-9.11l8.24-46.9Zm21.1,23.32l2.75-2.34,1.94-10.99-1.94-2.34h-16.08l-2.75,15.68h16.08Z"/><path class="cls-1" d="M297.15,105.53l5.56-31.42,8.38-7.17h24.12l6.83,8.24-5.63,31.76-8.17,6.9h-24.25l-6.83-8.31Zm26.87,.54l4.02-3.42,4.35-24.52-2.81-3.42h-14.41l-4.02,3.42-4.42,24.52,2.81,3.42h14.47Z"/><path class="cls-1" d="M384.25,88.91l-5.09,4.35,3.69,5.03-2.75,15.54h-9.11l2.41-13.87-2.95-4.09h-14.87l-3.15,17.96h-9.11l8.24-46.9h28.81l6.37,7.77-2.48,14.2Zm-27.34-.54h16.08l2.75-2.34,1.61-9.11-1.94-2.34h-16.08l-2.41,13.8Z"/><path class="cls-1" d="M405.09,74.64h-14l1.34-7.71h37.12l-1.41,7.71h-13.94l-6.9,39.2h-9.11l6.9-39.2Z"/><path class="cls-1" d="M434.91,66.94h33.17l-1.34,7.71h-24.05l-2.28,13h20.84l-1.34,7.71h-20.84l-3.28,18.49h-9.11l8.24-46.9Z"/><path class="cls-1" d="M465.66,105.53l5.56-31.42,8.38-7.17h24.12l6.83,8.24-5.63,31.76-8.17,6.9h-24.25l-6.83-8.31Zm26.87,.54l4.02-3.42,4.36-24.52-2.81-3.42h-14.4l-4.02,3.42-4.42,24.52,2.81,3.42h14.47Z"/><path class="cls-1" d="M520.06,66.94h9.11l-6.9,39.2h23.38l-1.34,7.71h-32.5l8.24-46.9Z"/><path class="cls-1" d="M557.98,66.94h9.11l-8.31,46.9h-9.11l8.31-46.9Z"/><path class="cls-1" d="M568.64,105.53l5.49-31.36,8.51-7.24h20.7l6.97,8.31-5.56,31.49-8.24,7.1h-20.97l-6.9-8.31Zm24.12,.54l3.48-2.95,4.42-25.46-2.41-2.95h-12.13l-3.48,2.95-4.49,25.46,2.41,2.95h12.19Z"/></svg>