<?xml version="1.0" encoding="UTF-8"?><svg xmlns="http://www.w3.org/2000/svg" width="1366" height="768" xmlns:xlink="http://www.w3.org/1999/xlink" viewBox="0 0 1366 768"><defs><style>.cls-1{fill:url(#Sky);}.cls-2{fill:url(#linear-gradient);}.cls-3{fill:url(#White__Black);}.cls-4{fill:url(#radial-gradient);}</style><linearGradient id="White__Black" x1="-1.53" y1="128.32" x2="1367.19" y2="128.32" gradientTransform="matrix(1, 0, 0, 1, 0, 0)" gradientUnits="userSpaceOnUse"><stop offset="0" stop-color="#fff"/><stop offset="1" stop-color="#000"/></linearGradient><linearGradient id="linear-gradient" x1="-.89" y1="288.97" x2="1367.01" y2="288.97" gradientTransform="matrix(1, 0, 0, 1, 0, 0)" gradientUnits="userSpaceOnUse"><stop offset="0" stop-color="#ff7bac"/><stop offset=".22" stop-color="#ff7bac" stop-opacity=".76"/><stop offset=".6" stop-color="#ff7bac" stop-opacity=".36"/><stop offset=".87" stop-color="#ff7bac" stop-opacity=".1"/><stop offset="1" stop-color="#ff7bac" stop-opacity="0"/></linearGradient><linearGradient id="Sky" x1="111" y1="417.5" x2="116" y2="417.5" gradientTransform="matrix(1, 0, 0, 1, 0, 0)" gradientUnits="userSpaceOnUse"><stop offset="0" stop-color="#cce0f4"/><stop offset=".06" stop-color="#c2dcf2"/><stop offset=".17" stop-color="#a9d2ee"/><stop offset=".31" stop-color="#7fc2e7"/><stop offset=".46" stop-color="#46abdd"/><stop offset=".57" stop-color="#1e9cd7"/><stop offset=".87" stop-color="#0075be"/><stop offset=".99" stop-color="#005b97"/></linearGradient><radialGradient id="radial-gradient" cx="683.47" cy="516.62" fx="683.47" fy="516.62" r="515.05" gradientTransform="matrix(1, 0, 0, 1, 0, 0)" gradientUnits="userSpaceOnUse"><stop offset=".57" stop-color="#1e9cd7"/><stop offset=".87" stop-color="#0075be"/><stop offset=".99" stop-color="#005b97"/></radialGradient></defs><g id="oragene"><path class="cls-3" d="M0,0C.42,19.44,.24,35.29,0,46c-1.17,52.86-5.76,76.47,10,105,2.35,4.26,3.53,6.39,5,8,26.19,28.65,92.93-27.59,140-4,36.94,18.52,24.68,67.62,55,76,40.57,11.21,80.55-71.73,127-58,9.71,2.87,11.12,7.43,50,26,6.74,3.22,16.01,7.53,31,14,42.44,18.32,63.66,27.48,84,33,27.58,7.49,53.98,14.66,82,8,60.7-14.42,64.24-78.31,114-85,37.2-5,41.75,29.83,91,37,66.17,9.63,87.52-48.93,169-51,52.82-1.34,49.53,23.12,106,24,89.95,1.39,110.37-60.49,173-45,40.86,10.1,92.01,51.23,111,43,6.76-2.93,11-8,11-8,6.24-7.46,6.76-16.49,7-22,.86-19.44,1.43-32.24,1.1-46.14-.22-9.21-1.02-11.89-1.1-20.86,0-.28,0-.06,0-16V0"/></g><g id="pink"><path class="cls-2" d="M1,117c4.27-.84,5.51,34.29,27,44,7.92,3.58,19.05,1.1,41-4,31.93-7.42,34.87-12.57,52-13,10.43-.26,29.09-.73,43,11,6.44,5.43,5.24,7.88,24,43,8.96,16.77,12.93,23.13,21,27,10.18,4.88,20.82,2.65,24,2,6.54-1.33,12.63-4.15,24-13,17.39-13.53,16.36-17.21,29-27,9.1-7.05,26.84-20.78,45-17,3.09,.64,3.45,1.22,18,9,10.26,5.48,20.68,10.63,31,16,20.62,10.73,38.38,18.41,49,23,41.68,18.02,74,27.75,89,32,15.2,4.31,22.79,6.46,29,7,5.06,.44,45.59,3.36,77-23,15.57-13.07,17.77-23.99,44-49,3.94-3.76,11.37-10.64,23-14,6.65-1.92,14.39-2.6,24-1,30.17,5.03,35.68,25.41,63,34,26.2,8.24,51.53-.93,60-4,19.7-7.13,19.72-14.11,48-27,19.84-9.04,35.67-12.82,45-15,21.39-4.99,34.73-7.94,51-4,10.01,2.42,10.28,4.83,26,11,8.48,3.33,25.61,9.39,45,12,10.96,1.48,39.19,4.97,70-6,16.73-5.95,15.33-9.44,52-26,21.02-9.49,27.75-11.17,34-12,10.19-1.35,22.77-.9,48,8,51.12,18.04,66.11,39.7,85,32,12.76-5.2,18.57-20.19,23-18,2.64,1.3,1.63,7.43,1,19-.02,.33,2.28-41.75,0,33-1.16,38.05-1.74,57.08-2,60-1.62,18.16-8.87,50.54-43,93-141-75.48-201.51-71.64-229-48-31.88,27.42-22.42,84.11-63,101-32.2,13.4-69.99-9.05-80-15-68.89-40.93-76.39-128.23-97-125-12.09,1.9-9.67,31.95-41,93-15.41,30.04-25.08,40.46-38,45-15.07,5.29-25.68-.55-40,8-14.77,8.82-17.63,23.49-22,30-32.05,47.78-276-63-276-63-35.65,18.5-89.6,40.58-158,48,0,0-71.22,7.73-147-9,0,0-37.27-8.23-90-36-.4-.21-1.18-.53-1.89-1.27-2.92-3.04-1.69-9.5-3.54-22.48-.52-3.62-1.59-9.19-4.57-20.25C23.19,319.72,0,266.48,0,265c0,0,0-17.84,0-1H0v-21c0-2.67,0-5.33,0-8,0-8.67,0-17.33,0-26v-20c0-4.33,0-8.67,0-13v-9c0-20.47-2.56-49.3,1-50Z"/><path class="cls-1" d="M111,433c1.67-10.33,3.33-20.67,5-31"/></g><g id="Layer_3"><path class="cls-4" d="M64,384c2.34,6.24,6.9,15.29,16,21,15.71,9.86,35.66,3.92,45,1,60.48-18.91,159.62-58.88,228-78,32.39-9.05,48.61-10.83,63-11,36.31-.44,65.01,9.38,99,21,22.93,7.84,40.13,13.72,62,26,36.9,20.72,43.92,35.4,79,49,20,7.75,32.23,12.5,49,11,47.91-4.28,79.43-54.74,86-66,.61-1.05,7.41-14.7,21-42,15.59-31.31,21.01-42.49,32-45,11.63-2.66,22.74,5.93,28,10,24.78,19.16,18.4,42.14,36,72,1.12,1.91,29.22,48,78,54,3.84,.47,45.83,5.1,65-19,9.37-11.78,5.33-20.41,18-45,4.09-7.95,12.01-23.31,23-33,21.71-19.14,53.27-14.25,100-7,54.81,8.5,92.89,28.25,101,41,.75,1.18,3.48,5.82,9,9,6.29,3.62,14.62,4.44,21,2,9.75-3.74,13.61-14.61,17-24,13.99-38.76,20.99-58.14,23-58,6.09,.41,3.61,100,3,201-.3,49.67,0,99.33,0,149v144h0c.1,.28,.21,.72,0,1-.36,.48-1.36,.14-3,0-1-.09-2,0-3,0h-400c-114.67,0-229.33,0-344,0-67,0-134,0-201,0H1c-.62,.04-.85,.15-1,0-.15-.15-.04-.38,0-1,.02-.33,0-.67,0-1,0-2.33,0-4.67,0-7,0-3.33,0-6.67,0-10,0-14.33,0-28.67,0-43V265"/></g></svg>